<svg aria-hidden="true" style="position: absolute; width: 0; height: 0; overflow: hidden;" version="1.1"
    xmlns="http://www.w3.org/2000/svg" xmlns:xlink="http://www.w3.org/1999/xlink">
    <defs>
        <symbol id="icon-Arrow" viewBox="0 0 32 32">
            <path fill="none" stroke="currentColor" stroke-linejoin="round" stroke-linecap="round" stroke-miterlimit="4"
                stroke-width="2" d="M6.4 13.6l10 10 10-10"></path>
        </symbol>
        <symbol id="icon-Cross" viewBox="0 0 32 32">
            <path fill="none" stroke="currentColor" stroke-linejoin="round" stroke-linecap="round" stroke-miterlimit="4"
                stroke-width="1.5" d="M25.333 25.333l-18.667-18.667"></path>
            <path fill="none" stroke="currentColor" stroke-linejoin="round" stroke-linecap="round" stroke-miterlimit="4"
                stroke-width="1.5" d="M25.333 6.667l-18.667 18.667"></path>
        </symbol>
        <symbol id="icon-Eye" viewBox="0 0 32 32">
            <path fill="none" stroke="currentColor" stroke-linejoin="round" stroke-linecap="round" stroke-miterlimit="4"
                stroke-width="2"
                d="M16 18.667c1.473 0 2.667-1.194 2.667-2.667s-1.194-2.667-2.667-2.667c-1.473 0-2.667 1.194-2.667 2.667s1.194 2.667 2.667 2.667z">
            </path>
            <path fill="none" stroke="currentColor" stroke-linejoin="round" stroke-linecap="round" stroke-miterlimit="4"
                stroke-width="2"
                d="M29.333 16c-3.556 6.223-8 9.333-13.333 9.333s-9.777-3.111-13.333-9.333c3.556-6.223 8-9.333 13.333-9.333s9.777 3.111 13.333 9.333z">
            </path>
        </symbol>
        <symbol id="icon-Facebook" viewBox="0 0 32 32">
            <path fill="none" stroke="currentColor" stroke-linejoin="round" stroke-linecap="round" stroke-miterlimit="4"
                stroke-width="2"
                d="M8 12.8v6.4h4.8v11.2h6.4v-11.2h4.8l1.6-6.4h-6.4v-3.2c0-0.424 0.169-0.831 0.469-1.131s0.707-0.469 1.131-0.469h4.8v-6.4h-4.8c-2.122 0-4.157 0.843-5.657 2.343s-2.343 3.535-2.343 5.657v3.2h-4.8z">
            </path>
        </symbol>
        <symbol id="icon-Insta" viewBox="0 0 32 32">
            <path fill="none" stroke="currentColor" stroke-linejoin="round" stroke-linecap="round" stroke-miterlimit="4"
                stroke-width="2"
                d="M22.902 2.196h-13.804c-3.812 0-6.902 3.090-6.902 6.902v13.804c0 3.812 3.090 6.902 6.902 6.902h13.804c3.812 0 6.902-3.090 6.902-6.902v-13.804c0-3.812-3.090-6.902-6.902-6.902z">
            </path>
            <path fill="none" stroke="currentColor" stroke-linejoin="round" stroke-linecap="round" stroke-miterlimit="4"
                stroke-width="2"
                d="M16 21.177c2.859 0 5.177-2.318 5.177-5.177s-2.318-5.176-5.177-5.176c-2.859 0-5.176 2.318-5.176 5.176s2.318 5.177 5.176 5.177z">
            </path>
            <path fill="none" stroke="currentColor" stroke-linejoin="round" stroke-linecap="round" stroke-miterlimit="4"
                stroke-width="2" d="M23.765 8.235v0.001"></path>
        </symbol>
        <symbol id="icon-Location" viewBox="0 0 32 32">
            <path fill="none" stroke="currentColor" stroke-linejoin="miter" stroke-linecap="square"
                stroke-miterlimit="4" stroke-width="2"
                d="M16 30.4c6.4-6.72 9.6-13.12 9.6-19.2 0-5.302-4.298-9.6-9.6-9.6s-9.6 4.298-9.6 9.6c0 6.080 3.2 12.48 9.6 19.2z">
            </path>
            <path fill="none" stroke="currentColor" stroke-linejoin="miter" stroke-linecap="square"
                stroke-miterlimit="4" stroke-width="2"
                d="M16 17.6c2.651 0 4.8-2.149 4.8-4.8s-2.149-4.8-4.8-4.8-4.8 2.149-4.8 4.8c0 2.651 2.149 4.8 4.8 4.8z">
            </path>
        </symbol>
        <symbol id="icon-Mail" viewBox="0 0 32 32">
            <path fill="none" stroke="currentColor" stroke-linejoin="round" stroke-linecap="round" stroke-miterlimit="4"
                stroke-width="2"
                d="M27.282 5.333h-21.538c-1.699 0-3.077 1.393-3.077 3.111v15.556c0 1.718 1.378 3.111 3.077 3.111h21.538c1.699 0 3.077-1.393 3.077-3.111v-15.556c0-1.718-1.378-3.111-3.077-3.111z">
            </path>
            <path fill="none" stroke="currentColor" stroke-linejoin="round" stroke-linecap="round" stroke-miterlimit="4"
                stroke-width="2" d="M2.667 8.445l13.846 9.333 13.846-9.333"></path>
        </symbol>
        <symbol id="icon-Menu" viewBox="0 0 32 32">
            <path fill="none" stroke="currentColor" stroke-linejoin="round" stroke-linecap="round" stroke-miterlimit="4"
                stroke-width="2" d="M5.333 8h21.333"></path>
            <path fill="none" stroke="currentColor" stroke-linejoin="round" stroke-linecap="round" stroke-miterlimit="4"
                stroke-width="2" d="M5.333 16h21.333"></path>
            <path fill="none" stroke="currentColor" stroke-linejoin="round" stroke-linecap="round" stroke-miterlimit="4"
                stroke-width="2" d="M5.333 24h21.333"></path>
        </symbol>
        <symbol id="icon-Phone" viewBox="0 0 32 32">
            <path fill="none" stroke="currentColor" stroke-linejoin="round" stroke-linecap="round" stroke-miterlimit="4"
                stroke-width="2"
                d="M4.93 1.524h6.812l3.406 8.515-4.258 2.555c1.824 3.698 4.817 6.691 8.515 8.515l2.555-4.258 8.515 3.406v6.812c0 0.903-0.359 1.77-0.998 2.409s-1.505 0.998-2.409 0.998c-6.643-0.404-12.909-3.225-17.615-7.931s-7.527-10.972-7.931-17.615c0-0.903 0.359-1.77 0.998-2.409s1.505-0.998 2.409-0.998">
            </path>
        </symbol>
        <symbol id="icon-Play" viewBox="0 0 32 32">
            <path fill="none" stroke="currentColor" stroke-linejoin="round" stroke-linecap="round" stroke-miterlimit="4"
                stroke-width="0.5333"
                d="M16.178 4.622c-2.285 0-4.52 0.678-6.42 1.947s-3.381 3.075-4.256 5.186c-0.875 2.111-1.103 4.435-0.658 6.676s1.546 4.301 3.162 5.917c1.616 1.616 3.675 2.717 5.917 3.163s4.565 0.217 6.676-0.658c2.111-0.875 3.916-2.356 5.186-4.256s1.947-4.134 1.947-6.42c0-3.065-1.217-6.004-3.385-8.171s-5.106-3.385-8.171-3.385z">
            </path>
            <path fill="none" stroke="currentColor" stroke-linejoin="round" stroke-linecap="butt" stroke-miterlimit="4"
                stroke-width="0.5296" d="M13.867 20.8v-9.244l6.933 4.622-6.933 4.622z"></path>
        </symbol>
        <symbol id="icon-Plus" viewBox="0 0 32 32">
            <path fill="none" stroke="currentColor" stroke-linejoin="round" stroke-linecap="round" stroke-miterlimit="4"
                stroke-width="2" d="M16 6.667v18.667"></path>
            <path fill="none" stroke="currentColor" stroke-linejoin="round" stroke-linecap="round" stroke-miterlimit="4"
                stroke-width="2" d="M6.667 16h18.667"></path>
        </symbol>
        <symbol id="icon-Search" viewBox="0 0 32 32">
            <path fill="none" stroke="currentColor" stroke-linejoin="round" stroke-linecap="round" stroke-miterlimit="4"
                stroke-width="2"
                d="M13.333 22.667c5.155 0 9.333-4.179 9.333-9.333s-4.179-9.333-9.333-9.333c-5.155 0-9.333 4.179-9.333 9.333s4.179 9.333 9.333 9.333z">
            </path>
            <path fill="none" stroke="currentColor" stroke-linejoin="round" stroke-linecap="round" stroke-miterlimit="4"
                stroke-width="2" d="M28 28l-8-8">
            </path>
        </symbol>
        <symbol id="icon-Share" viewBox="0 0 32 32">
            <path fill="none" stroke="currentColor" stroke-linejoin="round" stroke-linecap="round" stroke-miterlimit="4"
                stroke-width="2"
                d="M11.913 14.2l7.669-3.832M8.808 12.279c0.687 0 1.359 0.204 1.931 0.585s1.017 0.924 1.28 1.558c0.263 0.635 0.332 1.333 0.198 2.006s-0.465 1.293-0.951 1.778-1.105 0.816-1.779 0.95c-0.674 0.134-1.373 0.065-2.008-0.198s-1.178-0.708-1.56-1.279c-0.382-0.571-0.586-1.242-0.586-1.929 0-0.921 0.366-1.804 1.018-2.456s1.536-1.017 2.457-1.017v0zM19.234 22.697c0 0.687 0.204 1.358 0.586 1.929s0.925 1.016 1.56 1.279c0.635 0.263 1.334 0.332 2.008 0.198s1.293-0.465 1.779-0.95c0.486-0.486 0.817-1.104 0.951-1.778s0.065-1.372-0.198-2.006c-0.263-0.635-0.709-1.177-1.28-1.559s-1.243-0.585-1.931-0.585c-0.922 0-1.806 0.366-2.457 1.017s-1.018 1.535-1.018 2.456zM11.913 17.303v0zM22.709 12.279c0.687 0 1.359-0.204 1.931-0.585s1.017-0.924 1.28-1.559c0.263-0.635 0.332-1.333 0.198-2.006s-0.465-1.292-0.951-1.778c-0.486-0.486-1.105-0.816-1.779-0.95s-1.373-0.065-2.008 0.198c-0.635 0.263-1.178 0.708-1.56 1.279s-0.586 1.243-0.586 1.929c0 0.921 0.366 1.804 1.018 2.456s1.536 1.017 2.457 1.017z">
            </path>
        </symbol>
        <symbol id="icon-Size" viewBox="0 0 32 32">
            <path fill="none" stroke="currentColor" stroke-linejoin="round" stroke-linecap="round" stroke-miterlimit="4"
                stroke-width="2" d="M5.333 11.028v-4.556c0-0.302 0.122-0.592 0.339-0.805s0.512-0.334 0.819-0.334h4.634">
            </path>
            <path fill="none" stroke="currentColor" stroke-linejoin="round" stroke-linecap="round" stroke-miterlimit="4"
                stroke-width="2" d="M20.392 5.333h4.634c0.307 0 0.602 0.12 0.819 0.334s0.339 0.503 0.339 0.805v4.556">
            </path>
            <path fill="none" stroke="currentColor" stroke-linejoin="round" stroke-linecap="round" stroke-miterlimit="4"
                stroke-width="2"
                d="M11.125 25.834h-4.634c-0.307 0-0.602-0.12-0.819-0.334s-0.339-0.503-0.339-0.805v-4.556"></path>
            <path fill="none" stroke="currentColor" stroke-linejoin="round" stroke-linecap="round" stroke-miterlimit="4"
                stroke-width="2"
                d="M26.184 20.139v4.556c0 0.302-0.122 0.592-0.339 0.805s-0.512 0.334-0.819 0.334h-4.634"></path>
            <path fill="none" stroke="currentColor" stroke-linejoin="round" stroke-linecap="round" stroke-miterlimit="4"
                stroke-width="2" d="M25.848 25.503l-6.614-6.503M12.284 12.167v0zM19.234 12.167v0zM12.284 19v0z"></path>
        </symbol>
        <symbol id="icon-Sound" viewBox="0 0 32 32">
            <path fill="none" stroke="currentColor" stroke-linejoin="round" stroke-linecap="round" stroke-miterlimit="4"
                stroke-width="2"
                d="M14.667 6.666v18.667l-5.333-5.333h-4c-0.354 0-0.693-0.14-0.943-0.391s-0.391-0.589-0.391-0.943v-5.333c0-0.354 0.14-0.693 0.391-0.943s0.589-0.391 0.943-0.391h4l5.333-5.333z">
            </path>
            <path fill="none" stroke="currentColor" stroke-linejoin="round" stroke-linecap="round" stroke-miterlimit="4"
                stroke-width="2" d="M24.48 7.52c2.247 2.25 3.509 5.3 3.509 8.48s-1.262 6.23-3.509 8.48"></path>
            <path fill="none" stroke="currentColor" stroke-linejoin="round" stroke-linecap="round" stroke-miterlimit="4"
                stroke-width="2"
                d="M20.72 11.28c0.621 0.619 1.113 1.355 1.449 2.165s0.509 1.678 0.509 2.555c0 0.877-0.173 1.745-0.509 2.555s-0.829 1.546-1.449 2.165">
            </path>
        </symbol>
        <symbol id="icon-Telegram" viewBox="0 0 32 32">
            <path fill="none" stroke="currentColor" stroke-linejoin="round" stroke-linecap="round" stroke-miterlimit="4"
                stroke-width="2" d="M20.8 12.8l-6.4 6.4 9.6 9.6 6.4-25.6-28.8 11.2 6.4 3.2 3.2 9.6 4.8-6.4"></path>
        </symbol>
        <symbol id="icon-Two_arrows" viewBox="0 0 32 32">
            <path fill="none" stroke="currentColor" stroke-linejoin="round" stroke-linecap="round" stroke-miterlimit="4"
                stroke-width="2" d="M18.667 5.333l-10 10 10 10"></path>
            <path fill="none" stroke="currentColor" stroke-linejoin="round" stroke-linecap="round" stroke-miterlimit="4"
                stroke-width="2" d="M24 5.333l-10 10 10 10"></path>
        </symbol>
        <symbol id="icon-Whats_up" viewBox="0 0 32 32">
            <path fill="none" stroke="currentColor" stroke-linejoin="round" stroke-linecap="round" stroke-miterlimit="4"
                stroke-width="2"
                d="M1.6 30.418l2.644-6.090c-2.023-2.872-2.928-6.383-2.546-9.875s2.025-6.724 4.621-9.090c2.596-2.366 5.966-3.704 9.478-3.762s6.925 1.168 9.597 3.447 4.421 5.456 4.918 8.933c0.497 3.477-0.292 7.016-2.22 9.953s-4.86 5.069-8.248 5.997-6.998 0.588-10.153-0.957l-8.093 1.442">
            </path>
            <path fill="none" stroke="currentColor" stroke-linejoin="round" stroke-linecap="round" stroke-miterlimit="4"
                stroke-width="2"
                d="M11.215 12.79c0 0.213 0.084 0.416 0.235 0.567s0.354 0.235 0.567 0.235 0.416-0.084 0.567-0.235c0.15-0.15 0.235-0.354 0.235-0.567v-1.603c0-0.213-0.084-0.416-0.235-0.567s-0.354-0.235-0.567-0.235c-0.213 0-0.416 0.084-0.567 0.235s-0.235 0.354-0.235 0.567v1.602zM11.215 12.79c0 2.125 0.844 4.163 2.347 5.666s3.541 2.347 5.666 2.347h1.603c0.212 0 0.416-0.084 0.567-0.235s0.235-0.354 0.235-0.567c0-0.213-0.084-0.416-0.235-0.567s-0.354-0.235-0.567-0.235h-1.603c-0.213 0-0.416 0.084-0.567 0.235s-0.235 0.354-0.235 0.567c0 0.213 0.084 0.416 0.235 0.567s0.354 0.235 0.567 0.235">
            </path>
        </symbol>
        <symbol id="icon-Youtube" viewBox="0 0 32 32">
            <path fill="none" stroke="currentColor" stroke-linejoin="round" stroke-linecap="round" stroke-miterlimit="4"
                stroke-width="2"
                d="M24.148 4h-16.296c-3.6 0-6.519 3.070-6.519 6.857v10.286c0 3.787 2.918 6.857 6.519 6.857h16.296c3.6 0 6.519-3.070 6.519-6.857v-10.286c0-3.787-2.918-6.857-6.519-6.857z">
            </path>
            <path fill="none" stroke="currentColor" stroke-linejoin="round" stroke-linecap="round" stroke-miterlimit="4"
                stroke-width="2" d="M13.333 10.667l8 5.333-8 5.333v-10.667z"></path>
        </symbol>
    </defs>
</svg>